# xmcd
#
# Track frame offsets: 
#        150
#        21930
#        41162
#        64027
#
# Disc length: 1143 seconds
#
# Revision: 13
# Processed by: cddbd v1.5.2PL0 Copyright (c) Steve Scherf et al.
# Submitted via: ExactAudioCopy v1.0b3
#
DISCID=30047504
DTITLE=倉木麻衣 - Feel fine!
DYEAR=2002
DGENRE=JPop
TTITLE0=Feel fine!
TTITLE1=Rescue Me
TTITLE2=Mai-K Dub Edition -K.F.A. Discotheque Master Mix-
TTITLE3=Feel fine! 〜Instrumental〜
EXTD=YEAR: 2002
EXTT0=
EXTT1=
EXTT2=
EXTT3=
PLAYORDER=
